<svg width="33" height="44" viewBox="0 0 33 44" fill="none" xmlns="http://www.w3.org/2000/svg">
<path d="M22.6554 8.01256C20.5571 10.2348 16.5717 9.62182 16.5717 9.62182C16.5717 9.62182 15.9943 5.40699 18.0946 3.18478C20.1929 0.964616 24.1783 1.57757 24.1783 1.57757C24.1783 1.57757 24.7557 5.79035 22.6554 8.01256ZM1 26.2228C1 32.9489 5.25475 40.6754 9.56181 42.3093C11.0537 42.8751 12.5979 42.094 13.8805 41.1203C14.8531 40.3823 16.0311 39.6791 16.9844 39.6791C17.9338 39.6791 19.1156 40.3823 20.0863 41.1203C21.3689 42.094 22.9131 42.8751 24.4069 42.3093C27.4662 41.149 30.5004 36.9116 32 32.1412C29.0938 31.2597 26.9741 28.4799 26.9741 25.1855C26.9741 22.1679 28.7547 19.5808 31.287 18.4922C29.6556 15.4254 26.9896 13.7997 23.9768 13.7997C22.4191 13.7997 20.9853 14.4639 19.8306 15.2614C17.9822 16.5324 15.9846 16.5324 14.1382 15.2614C12.9815 14.4639 11.5497 13.7997 9.99194 13.7997C5.02419 13.7997 1 18.2175 1 26.2228Z" fill="white" stroke="black" stroke-width="1.5" stroke-linecap="round" stroke-linejoin="round"/>
</svg>
