<svg width="34" height="35" viewBox="0 0 34 35" fill="none" xmlns="http://www.w3.org/2000/svg">
<path d="M0.5 2.14786V32.8506C0.500209 32.9172 0.520382 32.9823 0.557991 33.0376C0.595599 33.093 0.648968 33.1362 0.711406 33.1618C0.773843 33.1874 0.84257 33.1943 0.908968 33.1816C0.975365 33.1689 1.03648 33.1372 1.08464 33.0904L17.3174 17.5L1.08464 1.90802C1.03648 1.86125 0.975365 1.82953 0.908968 1.81683C0.84257 1.80413 0.773843 1.81102 0.711406 1.83664C0.648968 1.86225 0.595599 1.90545 0.557991 1.96082C0.520382 2.01618 0.500209 2.08125 0.5 2.14786ZM24.1237 11.0938L3.76988 0.0502323L3.75718 0.0432011C3.40656 -0.144296 3.07338 0.322885 3.36055 0.594756L19.3157 15.6196L24.1237 11.0938ZM3.36213 34.4052C3.07338 34.6771 3.40656 35.1443 3.75877 34.9568L3.77146 34.9498L24.1237 23.9062L19.3157 19.3789L3.36213 34.4052ZM32.3404 15.5469L26.6566 12.4641L21.3123 17.5L26.6566 22.5335L32.3404 19.4531C33.8865 18.6117 33.8865 16.3883 32.3404 15.5469Z" fill="white"/>
</svg>
