<svg width="23" height="25" viewBox="0 0 23 25" fill="none" xmlns="http://www.w3.org/2000/svg">
<path d="M14.2868 20.9C15.3438 20.9 15.9022 22.1288 15.1971 22.9016C14.7387 23.4045 14.1775 23.8067 13.55 24.0822C12.9225 24.3576 12.243 24.5 11.5557 24.5C10.8684 24.5 10.1888 24.3576 9.56137 24.0822C8.93391 23.8067 8.37265 23.4045 7.91423 22.9016C7.2397 22.1624 7.72115 21.0068 8.68895 20.9084L8.82337 20.9012L14.2868 20.9ZM11.5557 0.5C13.2151 0.5 14.6179 1.5836 15.0688 3.0692L15.125 3.2744L15.1348 3.326C16.4821 4.07206 17.6302 5.12104 18.4849 6.38696C19.3396 7.65288 19.8766 9.09969 20.052 10.6088L20.0862 10.9532L20.1094 11.3V14.8172L20.1351 14.9804C20.3024 15.8646 20.8007 16.6553 21.5318 17.1968L21.7359 17.3372L21.9338 17.456C22.9847 18.0404 22.6181 19.5752 21.4732 19.6928L21.3314 19.7H1.77995C0.523771 19.7 0.0850853 18.0632 1.17752 17.456C1.64313 17.1972 2.04542 16.8416 2.35616 16.4139C2.6669 15.9862 2.87855 15.4969 2.97626 14.9804L3.00192 14.8088L3.00314 11.2448C3.07765 9.67746 3.54222 8.15193 4.35621 6.80176C5.17019 5.45159 6.30876 4.31793 7.67228 3.5L7.97532 3.3248L7.98754 3.2732C8.15991 2.55539 8.55262 1.9069 9.11254 1.41541C9.67247 0.923933 10.3726 0.613185 11.1182 0.5252L11.3406 0.5048L11.5557 0.5Z" fill="white"/>
</svg>
