<svg width="33" height="28" viewBox="0 0 33 28" fill="none" xmlns="http://www.w3.org/2000/svg">
<path d="M32.8889 13.7965C32.8889 18.8364 31.0526 23.4043 28.0926 26.7389L26.6126 25.0944C29.2163 22.171 30.8333 18.2121 30.8333 13.7965C30.8333 9.39607 29.2163 5.42199 26.6126 2.49853L28.0926 0.85409C31.0526 4.18866 32.8889 8.75656 32.8889 13.7965ZM27.4074 10.1422V7.70594H23.0222C21.8163 7.70594 20.8296 8.80224 20.8296 10.1422V12.5784C20.8296 13.2245 21.0606 13.8442 21.4718 14.301C21.883 14.7579 22.4407 15.0146 23.0222 15.0146H25.2148V17.4508H20.8296V19.887H25.2148C26.4207 19.887 27.4074 18.7907 27.4074 17.4508V15.0146C27.4074 14.3685 27.1764 13.7488 26.7652 13.2919C26.354 12.835 25.7963 12.5784 25.2148 12.5784H23.0222V10.1422H27.4074ZM11.5385 4.66067C12.9774 3.70142 14.6493 3.13804 16.4444 3.13804C18.2396 3.13804 19.9115 3.70142 21.3504 4.66067H25.6122C23.3648 1.85903 20.0896 0.0927734 16.4444 0.0927734C12.7993 0.0927734 9.52407 1.85903 7.27667 4.66067H11.5385ZM18.0889 13.7965C18.9659 13.7965 19.7333 14.6492 19.7333 15.6236V17.4508C19.7333 17.7707 19.6766 18.0875 19.5664 18.3831C19.4562 18.6787 19.2947 18.9472 19.0911 19.1735C18.8875 19.3997 18.6458 19.5791 18.3798 19.7016C18.1138 19.824 17.8287 19.887 17.5407 19.887H13.1556V7.70594H17.5407C18.1223 7.70594 18.6799 7.96261 19.0911 8.41949C19.5023 8.87637 19.7333 9.49603 19.7333 10.1422V11.9693C19.7333 12.9438 18.9659 13.7965 18.0889 13.7965ZM17.5407 15.0146H15.3481V17.4508H17.5407V15.0146ZM17.5407 10.1422H15.3481V12.5784H17.5407V10.1422ZM6.2763 2.49853L4.7963 0.85409C1.8363 4.18866 0 8.75656 0 13.7965C0 18.8364 1.8363 23.4043 4.7963 26.7389L6.2763 25.0944C3.67259 22.171 2.05556 18.2121 2.05556 13.7965C2.05556 9.39607 3.67259 5.42199 6.2763 2.49853ZM9.86667 19.887V15.0146H7.67407V19.887H5.48148V10.1422C5.48148 9.49603 5.71249 8.87637 6.12368 8.41949C6.53487 7.96261 7.09256 7.70594 7.67407 7.70594H9.86667C11.0726 7.70594 12.0593 8.80224 12.0593 10.1422V19.887H9.86667ZM9.86667 12.5784V10.1422H7.67407V12.5784H9.86667ZM21.3504 22.9323C19.9115 23.8915 18.2396 24.4549 16.4444 24.4549C14.7149 24.4532 13.0185 23.9267 11.5385 22.9323H7.27667C9.52407 25.7339 12.7993 27.5002 16.4444 27.5002C20.0896 27.5002 23.3648 25.7339 25.6122 22.9323H21.3504Z" fill="white"/>
</svg>
