<svg width="27" height="27" viewBox="0 0 27 27" fill="none" xmlns="http://www.w3.org/2000/svg">
<path d="M18.7732 16.7863H17.6219L17.2138 16.3928C18.6915 14.679 19.5036 12.4909 19.5019 10.228C19.5019 8.3544 18.9463 6.52287 17.9054 4.96502C16.8645 3.40718 15.385 2.19298 13.654 1.47599C11.923 0.758987 10.0183 0.571388 8.18067 0.93691C6.34307 1.30243 4.65512 2.20466 3.33028 3.5295C2.00544 4.85434 1.10321 6.54229 0.737692 8.37989C0.372169 10.2175 0.559769 12.1222 1.27677 13.8532C1.99376 15.5842 3.20796 17.0637 4.7658 18.1046C6.32365 19.1455 8.15518 19.7011 10.0288 19.7011C12.3752 19.7011 14.5322 18.8413 16.1936 17.413L16.5871 17.8211V18.9724L23.8741 26.2449L26.0456 24.0733L18.7732 16.7863ZM10.0288 16.7863C6.39985 16.7863 3.47047 13.8569 3.47047 10.228C3.47047 6.59907 6.39985 3.66969 10.0288 3.66969C13.6577 3.66969 16.5871 6.59907 16.5871 10.228C16.5871 13.8569 13.6577 16.7863 10.0288 16.7863Z" fill="white"/>
</svg>
