<svg width="172" height="172" viewBox="0 0 172 172" fill="none" xmlns="http://www.w3.org/2000/svg">
<path d="M114.375 58.9074L73.7545 99.6696L57.8668 83.6743C56.2497 82.055 54.0564 81.1452 51.7694 81.1452C49.4825 81.1452 47.2892 82.055 45.672 83.6743C44.0549 85.2936 43.1464 87.4899 43.1464 89.78C43.1464 90.914 43.3694 92.0368 43.8028 93.0844C44.2361 94.132 44.8713 95.0839 45.672 95.8858L67.6571 117.901C68.4554 118.707 69.4052 119.347 70.4518 119.783C71.4983 120.22 72.6208 120.445 73.7545 120.445C74.8882 120.445 76.0106 120.22 77.0572 119.783C78.1037 119.347 79.0535 118.707 79.8519 117.901L126.57 71.1189C127.371 70.317 128.006 69.3651 128.439 68.3175C128.873 67.2699 129.096 66.1471 129.096 65.0131C129.096 63.8792 128.873 62.7564 128.439 61.7087C128.006 60.6611 127.371 59.7092 126.57 58.9074C125.769 58.1056 124.819 57.4695 123.772 57.0356C122.726 56.6017 121.605 56.3783 120.473 56.3783C119.34 56.3783 118.219 56.6017 117.173 57.0356C116.127 57.4695 115.176 58.1056 114.375 58.9074ZM86.121 0C74.8432 0 63.6759 2.22436 53.2566 6.54607C42.8372 10.8678 33.37 17.2022 25.3954 25.1877C9.29 41.3151 0.242062 63.1886 0.242062 85.9962C0.174226 105.853 7.03969 125.108 19.6507 140.432L2.47491 157.631C1.28328 158.84 0.476048 160.376 0.155083 162.044C-0.165882 163.712 0.0137999 165.439 0.671456 167.005C1.38475 168.552 2.54108 169.852 3.99366 170.74C5.44624 171.628 7.12956 172.064 8.82996 171.992H86.121C108.898 171.992 130.741 162.932 146.847 146.805C162.952 130.677 172 108.804 172 85.9962C172 63.1886 162.952 41.3151 146.847 25.1877C130.741 9.06029 108.898 0 86.121 0ZM86.121 154.793H29.5268L37.5135 146.796C39.113 145.184 40.0108 143.005 40.0108 140.733C40.0108 138.461 39.113 136.281 37.5135 134.67C26.2684 123.422 19.2657 108.618 17.6986 92.7795C16.1315 76.9412 20.0968 61.0488 28.919 47.8098C37.7412 34.5708 50.8745 24.8044 66.0813 20.1745C81.2881 15.5446 97.6276 16.3376 112.316 22.4185C127.004 28.4993 139.133 39.4918 146.635 53.5231C154.137 67.5544 156.549 83.7564 153.46 99.3687C150.37 114.981 141.971 129.038 129.692 139.144C117.413 149.25 102.015 154.781 86.121 154.793Z" fill="black"/>
</svg>
