<svg width="39" height="45" viewBox="0 0 39 45" fill="none" xmlns="http://www.w3.org/2000/svg">
<path d="M19.5 4.46327C15.4776 4.46327 11.6198 5.92399 8.77555 8.52409C5.93125 11.1242 4.33333 14.6507 4.33333 18.3278C4.33333 23.9964 8.19433 29.4649 12.4323 33.7015C14.5993 35.8597 16.9638 37.8449 19.5 39.6355C19.8784 39.3701 20.3226 39.0466 20.8325 38.665C22.8687 37.1365 24.7852 35.4792 26.5677 33.7055C30.8057 29.4649 34.6667 23.9984 34.6667 18.3278C34.6667 14.6507 33.0688 11.1242 30.2245 8.52409C27.3802 5.92399 23.5225 4.46327 19.5 4.46327ZM19.5 44.5L18.2715 43.7275L18.265 43.7236L18.252 43.7137L18.2087 43.686L18.0462 43.581L17.4612 43.1908C14.4969 41.1543 11.7431 38.8736 9.23433 36.3774C4.80567 31.9447 0 25.5294 0 18.3258C7.70647e-08 13.5981 2.05446 9.06404 5.71142 5.72105C9.36838 2.37807 14.3283 0.5 19.5 0.5C24.6717 0.5 29.6316 2.37807 33.2886 5.72105C36.9455 9.06404 39 13.5981 39 18.3258C39 25.5294 34.1943 31.9467 29.7657 36.3734C27.2576 38.8695 24.5045 41.1502 21.541 43.1868C21.2941 43.3554 21.0449 43.5211 20.7935 43.684L20.748 43.7117L20.735 43.7216L20.7307 43.7236L19.5 44.5ZM19.5 14.3665C18.3507 14.3665 17.2485 14.7838 16.4359 15.5267C15.6232 16.2696 15.1667 17.2772 15.1667 18.3278C15.1667 19.3784 15.6232 20.3859 16.4359 21.1288C17.2485 21.8717 18.3507 22.2891 19.5 22.2891C20.6493 22.2891 21.7515 21.8717 22.5641 21.1288C23.3768 20.3859 23.8333 19.3784 23.8333 18.3278C23.8333 17.2772 23.3768 16.2696 22.5641 15.5267C21.7515 14.7838 20.6493 14.3665 19.5 14.3665ZM10.8333 18.3278C10.8333 16.2266 11.7464 14.2114 13.3717 12.7257C14.9971 11.2399 17.2015 10.4052 19.5 10.4052C21.7985 10.4052 24.0029 11.2399 25.6283 12.7257C27.2536 14.2114 28.1667 16.2266 28.1667 18.3278C28.1667 20.429 27.2536 22.4441 25.6283 23.9299C24.0029 25.4157 21.7985 26.2503 19.5 26.2503C17.2015 26.2503 14.9971 25.4157 13.3717 23.9299C11.7464 22.4441 10.8333 20.429 10.8333 18.3278Z" fill="#555555"/>
</svg>
