<svg width="39" height="44" viewBox="0 0 39 44" fill="none" xmlns="http://www.w3.org/2000/svg">
<path fill-rule="evenodd" clip-rule="evenodd" d="M4.96562 1.88672C7.39941 -0.99106 11.4071 -0.479718 13.4449 2.75957L15.9687 6.76469C17.6285 9.39988 17.4805 13.0815 15.5107 15.4099L15.0348 15.976C14.9808 16.2136 14.9753 16.4631 15.0188 16.7037C15.1447 17.6741 15.8267 19.729 18.6824 23.1062C21.5382 26.4835 23.278 27.2921 24.106 27.4443C24.3146 27.4942 24.53 27.4869 24.7359 27.4229L25.5518 26.4573C27.3037 24.3881 29.9915 24.0005 32.1593 25.4013L35.9789 27.8748C39.2527 29.9867 40.0786 35.2762 37.3988 38.4465L34.5571 41.8047C33.6611 42.863 32.4572 43.7454 30.9894 43.9095C27.3697 44.3115 18.9364 43.7977 10.0712 33.3164C1.7979 23.5319 0.210036 14.9985 0.00805332 10.7936C-0.091938 8.66736 0.751989 6.86934 1.8279 5.5993L4.96562 1.88672ZM11.0451 4.8977C10.0312 3.28756 8.14335 3.15913 7.07944 4.41727L3.93971 8.12747C3.27977 8.90757 2.9638 9.76852 3.00379 10.5914C3.16378 13.933 4.44367 21.6317 12.187 30.7882C20.3103 40.392 27.8117 40.6797 30.7114 40.3563C31.3034 40.2921 31.8913 39.9258 32.4412 39.2765L35.281 35.9159C36.4369 34.5508 36.1829 32.063 34.5471 31.007L30.7274 28.536C29.6715 27.8558 28.4356 28.0793 27.6677 28.9878L26.7577 30.0652L25.6978 28.8C26.7577 30.0652 26.7557 30.0676 26.7537 30.0676L26.7517 30.0724L26.7457 30.0795L26.7317 30.0938L26.7017 30.1271C26.6174 30.2203 26.5264 30.3046 26.4298 30.3792C26.2698 30.5052 26.0578 30.6455 25.7918 30.7621C25.2519 31.0023 24.5359 31.1307 23.652 30.969C21.9182 30.6527 19.6204 29.2471 16.5666 25.6368C13.5149 22.0265 12.323 19.3104 12.055 17.2508C11.917 16.1995 12.027 15.3481 12.231 14.7059C12.3433 14.3446 12.504 14.0073 12.707 13.707L12.771 13.6238L12.7989 13.5881L12.8109 13.5739L12.8169 13.5667L12.8209 13.562L13.3969 12.8818C14.2528 11.8662 14.3728 10.1847 13.5669 8.90281L11.0451 4.8977Z" fill="#555555"/>
</svg>
