<svg width="138" height="172" viewBox="0 0 138 172" fill="none" xmlns="http://www.w3.org/2000/svg">
<path d="M17.25 172C12.5062 172 8.44675 170.397 5.0715 167.192C1.69625 163.987 0.00575 160.129 0 155.619V73.7143C0 69.2095 1.6905 65.3545 5.0715 62.1493C8.4525 58.9441 12.512 57.3388 17.25 57.3333H25.875V40.9524C25.875 29.6222 30.0811 19.9657 38.4934 11.9827C46.9056 3.99969 57.0745 0.00546591 69 5.59077e-06C80.9255 -0.00545473 91.0972 3.98877 99.5152 11.9827C107.933 19.9766 112.136 29.6331 112.125 40.9524V57.3333H120.75C125.494 57.3333 129.556 58.9387 132.937 62.1493C136.318 65.36 138.006 69.215 138 73.7143V155.619C138 160.124 136.312 163.982 132.937 167.192C129.562 170.403 125.499 172.005 120.75 172H17.25ZM69 131.048C73.7437 131.048 77.8061 129.445 81.1871 126.24C84.5681 123.035 86.2557 119.177 86.25 114.667C86.2442 110.156 84.5566 106.301 81.1871 103.102C77.8176 99.902 73.7552 98.2966 69 98.2857C64.2447 98.2748 60.1852 99.8801 56.8215 103.102C53.4577 106.323 51.7672 110.178 51.75 114.667C51.7327 119.155 53.4232 123.013 56.8215 126.24C60.2197 129.467 64.2792 131.069 69 131.048ZM43.125 57.3333H94.875V40.9524C94.875 34.127 92.3594 28.3254 87.3281 23.5476C82.2969 18.7698 76.1875 16.381 69 16.381C61.8125 16.381 55.7031 18.7698 50.6719 23.5476C45.6406 28.3254 43.125 34.127 43.125 40.9524V57.3333Z" fill="black"/>
</svg>
