<svg width="172" height="172" viewBox="0 0 172 172" fill="none" xmlns="http://www.w3.org/2000/svg">
<path d="M172 86C172 97.8967 169.741 109.077 165.223 119.54C160.705 130.003 154.579 139.105 146.845 146.845C139.111 154.585 130.009 160.714 119.54 165.232C109.071 169.75 97.8909 172.006 86 172C75.1067 172 64.7494 170.065 54.9282 166.195C45.107 162.325 36.3637 156.987 28.6982 150.182C21.0327 143.376 14.7633 135.35 9.89 126.102C5.01667 116.854 1.935 106.783 0.645 95.89C0.358334 93.1667 1.00333 91.0539 2.58 89.5518C4.15667 88.0497 6.02 87.1524 8.17 86.86C10.32 86.5676 12.3983 87.0349 14.405 88.2618C16.4117 89.4887 17.5583 91.6015 17.845 94.6C19.995 111.943 27.5573 126.348 40.5318 137.815C53.5063 149.282 68.6624 155.015 86 155.015C105.207 155.015 121.475 148.35 134.805 135.02C148.135 121.69 154.8 105.422 154.8 86.215C154.8 67.0083 148.135 50.74 134.805 37.41C121.475 24.08 105.207 17.415 86 17.415C73.2433 17.415 61.6677 20.5339 51.2732 26.7718C40.8787 33.0097 32.6743 41.2857 26.66 51.6H43C45.4367 51.6 47.4806 52.4256 49.1318 54.0768C50.783 55.728 51.6057 57.7691 51.6 60.2C51.5943 62.6309 50.7687 64.6749 49.1232 66.3318C47.4777 67.9887 45.4367 68.8115 43 68.8H8.6C6.16333 68.8 4.12227 67.9744 2.4768 66.3232C0.831334 64.672 0.00573333 62.6309 0 60.2V25.8C0 23.3633 0.825601 21.3223 2.4768 19.6768C4.128 18.0313 6.16907 17.2057 8.6 17.2C11.0309 17.1943 13.0749 18.0199 14.7318 19.6768C16.3887 21.3337 17.2115 23.3748 17.2 25.8V34.4C25.0833 23.9367 34.9733 15.5889 46.87 9.3568C58.7667 3.12467 71.81 0.00573333 86 0C97.8967 0 109.077 2.25893 119.54 6.7768C130.003 11.2947 139.105 17.4207 146.845 25.155C154.585 32.8893 160.714 41.9909 165.232 52.46C169.75 62.9291 172.006 74.1091 172 86ZM68.8 120.4C66.3633 120.4 64.3223 119.574 62.6768 117.923C61.0313 116.272 60.2057 114.231 60.2 111.8V86C60.2 83.5633 61.0256 81.5223 62.6768 79.8768C64.328 78.2313 66.3691 77.4057 68.8 77.4V68.8C68.8 64.07 70.4856 60.0223 73.8568 56.6568C77.228 53.2913 81.2757 51.6057 86 51.6C90.7243 51.5943 94.7749 53.2799 98.1518 56.6568C101.529 60.0337 103.211 64.0815 103.2 68.8V77.4C105.637 77.4 107.681 78.2256 109.332 79.8768C110.983 81.528 111.806 83.5691 111.8 86V111.8C111.8 114.237 110.974 116.281 109.323 117.932C107.672 119.583 105.631 120.406 103.2 120.4H68.8ZM77.4 77.4H94.6V68.8C94.6 66.3633 93.7744 64.3223 92.1232 62.6768C90.472 61.0313 88.4309 60.2057 86 60.2C83.5691 60.1943 81.528 61.0199 79.8768 62.6768C78.2256 64.3337 77.4 66.3748 77.4 68.8V77.4Z" fill="black"/>
</svg>
